<?xml version="1.0" encoding="utf-8"?>
<!-- Generator: Adobe Illustrator 21.0.2, SVG Export Plug-In . SVG Version: 6.00 Build 0)  -->
<svg version="1.1" id="Layer_1" xmlns="http://www.w3.org/2000/svg" xmlns:xlink="http://www.w3.org/1999/xlink" x="0px" y="0px"
	 viewBox="0 0 456 117" style="enable-background:new 0 0 456 117;" xml:space="preserve">
<style type="text/css">
	.st0{fill:#FEFEFE;}
	.st1{fill:#AF6060;}
	.st2{fill:#B06060;}
	.st3{fill:#B06161;}
	.st4{fill:#E3C8C8;}
	.st5{fill:#DBB7B7;}
	.st6{fill:#FEFDFD;}
	.st7{fill:#FDFCFC;}
</style>
<title>logo</title>
<path class="st0" d="M227.6,117c-74.8,0-149.5,0-224.3,0c-2.7,0-3.3-0.3-3.3-1.9C0.1,77.4,0.1,39.7,0,2c0-1.5,0.3-2,3.2-2
	C153.1,0.1,303,0.1,452.9,0c2.4,0,3.1,0.3,3.1,1.8c-0.1,37.8-0.1,75.6,0,113.3c0,1.8-0.9,1.8-3.4,1.8
	C377.6,116.9,302.6,116.9,227.6,117z"/>
<path class="st1" d="M127.5,55.9c8.9,3.6,14.3,9.2,14.5,18.5c0.2,8.8-4.5,16.5-12.7,19.7c-13.7,5.4-28,4.5-42.3,3.1
	c-3-0.3-1.9-2.7-1.9-4.2c-0.1-19,0-37.9,0-56.9c0-3.8,0.1-7.7,0-11.5c-0.1-2.3,0.8-3.2,3.1-3.4c11-1,21.9-1.9,32.8,0
	c12.1,2,18.9,9.5,18.2,19.9C138.7,48.1,134.3,52.4,127.5,55.9z"/>
<path class="st1" d="M6.2,96.8c7.5-24.6,14.9-48.7,22.2-72.9c0.6-2,1.5-2.9,3.9-2.9c5.5,0.2,11,0.2,16.5,0c2.4-0.1,3.6,0.7,4.3,3
	c7.1,23.2,14.3,46.4,21.6,69.5c1,3.2,0,3.5-2.8,3.6C57.2,97.5,57.1,97.6,53,83.5c-1.2-4.2-2.9-6.1-7.5-5.5c-4.1,0.4-8.3,0.4-12.5,0
	c-3-0.2-4.3,1-4.7,3.7c-0.1,0.3-0.1,0.7-0.2,1C23.6,98.4,23.6,98.4,6.2,96.8z"/>
<path class="st1" d="M190.1,98.3c-20.9-0.2-35.6-10.6-39-28.2c-6-30.5,14.1-53.1,47.3-49.6c0.3,0,0.7,0.1,1,0.2
	c11.8,1.9,11.7,1.9,8.3,13.1c-0.7,2.4-1.6,3-4.1,2.2c-5.4-1.9-11.1-2.4-16.7-1.3c-13.1,2.7-20,12.7-18.8,27.5
	c1,13,9.8,21.3,22.8,21.9c4.2,0.2,8.3-0.3,12.3-1.5c3-1,3.7,0.2,4.3,2.7c2.5,10.5,2.6,10.5-8.1,12.1C196.4,97.8,193.3,98,190.1,98.3
	z"/>
<path class="st2" d="M293.1,91.2c-1.5,1.5-2.8,3.3-4.6,4.5c-3.8,2.6-7.9,3.5-12.2,1.2c-4-2.1-5.3-5.7-5.5-9.9
	c-0.9-14,9.7-26,23.7-26.9c2.2-0.1,4.4,0,6.5,0.4c3.2,0.6,4.4,1.4,3.6,5.1c-2,9.6-4.4,19.1-4.5,29c0,1.1,0.2,2.6-1.6,2.4
	c-1.5-0.2-3.9,1.3-4.3-1.8c0.5-1.3,0.6-2.8,0.2-4.2C294.1,89.9,293.6,91.1,293.1,91.2z"/>
<path class="st2" d="M230.8,76.6c0.2-21.1,17.4-35.6,36.5-30.5c1.5,0.4,4.1,0.1,3.4,3.1c-0.6,2.5-1.7,3.2-4.6,2.4
	c-8.9-2.5-17-0.5-22.9,6.9c-6.2,7.8-8,16.8-4.4,26.3c2.4,6.3,8.7,9.2,16.5,8.1c1.8-0.2,3.6-0.6,5.4-1.1c1.5-0.5,2.5-0.5,2.9,1.3
	c0.3,1.5,0.7,2.8-1.5,3.5C247.8,100.9,230.4,97.1,230.8,76.6z"/>
<path class="st2" d="M348.4,98.1c-8.5,0.1-13-3.4-14.8-10.2c-2.7-10.7,4.7-24.4,14.9-27.2c6.5-1.8,12.3,0.6,14.1,5.9
	s-1.3,10.5-8,12.8c-3.8,1.3-7.8,1.9-11.8,1.7c-3.4-0.2-3.9,1.3-3.5,4.2c1,6.5,6.1,9.1,13.7,7.2c1.5-0.4,3.7-3.3,4.9,0.1
	s-1.7,3.8-3.9,4.4S349.5,97.9,348.4,98.1z"/>
<path class="st2" d="M382.4,98.1c-8.8,0-13.6-3.9-15-11.2c-2-10.7,5.4-23.5,15.3-26.2c6.5-1.8,12.3,0.6,14,6s-1.3,10.5-8.1,12.7
	c-3.8,1.3-7.8,1.9-11.8,1.7c-3.5-0.2-3.8,1.5-3.4,4.2c1,6.5,6.1,9.1,13.8,7.2c1.4-0.4,3.7-3.3,4.8,0.2s-1.8,3.8-4,4.4
	C386.1,97.5,384.2,97.9,382.4,98.1z"/>
<path class="st3" d="M441.7,60.1c0.5-0.1,1,0,1.4,0.1c1.7,0.8,5-0.4,4.6,3.1c-0.4,3.7-2.8,2.4-5.2,2c-3.2-0.6-6.5-0.4-8,3.3
	s1,5.8,3.7,7.7c7.1,4.8,9,10.1,5.8,15.7s-12.4,7.8-18.8,4.8c-1.6-0.7-2.3-1.5-1.5-3.4c0.7-1.6,1.4-2,3-1.4c1.2,0.5,2.5,0.8,3.8,1
	c3.6,0.6,6.9-0.1,8.2-3.9c1.3-3.5-0.6-6.1-3.5-8c-3.4-2.2-6.8-4.4-7.2-8.9C427.2,65.4,433.1,60,441.7,60.1z"/>
<path class="st3" d="M322,66c1.7-2.3,3.7-4.3,6.5-5.3c1.5-0.5,3.9-1.5,4.3,0.3s0.9,4.8-2.8,5.3c-5.7,0.9-8.5,5.1-9.9,10.1
	c-1.6,5.7-2.9,11.6-3.8,17.5c-0.5,3.5-2.6,3.4-4.9,3.2c-3.5-0.4-1.3-2.9-1.1-4.2c1.5-9.7,4-19.2,5-29c0.2-2,1.1-2.8,3.2-2.9
	c2.3-0.1,3,0.8,2.5,2.9c-0.3,0.9-0.3,1.9,0,2.8C321.3,66.5,321.7,66.3,322,66z"/>
<path class="st3" d="M413,66c1.7-2.3,3.7-4.3,6.5-5.3c1.5-0.5,3.9-1.5,4.3,0.3s0.9,4.8-2.8,5.3c-5.7,0.9-8.5,5.1-9.9,10.1
	c-1.6,5.6-2.9,11.3-3.7,17c-0.5,3.5-2.2,4.1-5,3.7c-3.5-0.5-1.3-3-1.1-4.2c1.5-9.7,4-19.2,5-29c0.2-2,1.1-2.8,3.2-2.9
	c2.3-0.1,3,0.9,2.5,2.9c-0.3,0.9-0.3,1.9,0,2.8C412.3,66.5,412.7,66.3,413,66z"/>
<path class="st4" d="M293.1,91.2l1.6-3.2c0.4,3.1,0.7,5.2-0.5,7.2C293.7,93.9,294.7,92.2,293.1,91.2z"/>
<path class="st5" d="M322,66l-1.3,2.8c-0.9-2-0.8-3.4,0.2-4.7L322,66z"/>
<path class="st5" d="M413,66c-0.1,1-0.7,1.8-1.5,2.3c-0.7-1.4-0.6-3.1,0.4-4.3L413,66z"/>
<path class="st0" d="M102.1,74c0-1,0-2,0-3c0-8.7,0.1-8.8,8.9-7.6l0.5,0.1c8.7,1.3,12.9,5.1,12.6,11.3c-0.3,6.4-5.3,10.1-14,10.4
	h-0.5c-7.5,0.2-7.5,0.2-7.5-7.3C102.1,76.7,102.1,75.4,102.1,74z"/>
<path class="st0" d="M102.1,42.1c0-10,0-10,10.1-9.2c6,0.5,9.5,3.3,9.9,7.9s-2.6,8-8.4,9.5l-0.5,0.1
	C103.4,52.9,102.1,51.9,102.1,42.1z"/>
<path class="st6" d="M32.1,65.1L39.7,36c2,0.4,1.3,2.3,1.7,3.5c2.1,7.3,4.1,14.7,6.3,21.9c0.9,2.9,0.3,3.9-2.8,3.7
	C40.8,65,36.6,65.1,32.1,65.1z"/>
<path class="st0" d="M277.1,85.6c0.2-11.1,8.2-20.2,16.7-20.5c3.4-0.1,5.1,0.6,4,4.5s-1.7,7.8-2.8,11.5c-0.9,3.4-2.8,6.4-5.4,8.8
	c-2.5,2.4-5.4,4.2-8.9,2.6C277.4,91,277.1,87.6,277.1,85.6z"/>
<path class="st7" d="M340.7,75.8c1.7-6.8,5.9-10.8,11.2-10.7c2.4,0,4.3,0.9,5,3.3c0.8,2.6-0.4,4.5-2.7,5.8
	C351.2,75.9,346.1,76.6,340.7,75.8z"/>
<path class="st7" d="M378,76.3c-4.3,0.7-3.8-1.5-2.1-4.3c2.3-3.9,5.1-7,10.2-6.8c2.5,0.1,4.2,1,4.8,3.5c0.6,2.2-0.4,4.5-2.5,5.5
	C385.3,75.8,381.9,76.1,378,76.3z"/>
</svg>
